<svg class="main-svg" xmlns="http://www.w3.org/2000/svg" xmlns:xlink="http://www.w3.org/1999/xlink" width="1200" height="800" style="" viewBox="0 0 1200 800"><rect x="0" y="0" width="1200" height="800" style="fill: rgb(255, 255, 255); fill-opacity: 1;"/><defs id="defs-4a5d97"><g class="clips"><clipPath id="clip4a5d97xyplot" class="plotclip"><rect width="1040" height="620"/></clipPath><clipPath class="axesclip" id="clip4a5d97x"><rect x="80" y="0" width="1040" height="800"/></clipPath><clipPath class="axesclip" id="clip4a5d97y"><rect x="0" y="100" width="1200" height="620"/></clipPath><clipPath class="axesclip" id="clip4a5d97xy"><rect x="80" y="100" width="1040" height="620"/></clipPath></g><g class="gradients"/><g class="patterns"/></defs><g class="bglayer"><rect class="bg" x="80" y="100" width="1040" height="620" style="fill: rgb(229, 236, 246); fill-opacity: 1; stroke-width: 0;"/></g><g class="layer-below"><g class="imagelayer"/><g class="shapelayer"/></g><g class="cartesianlayer"><g class="subplot xy"><g class="layer-subplot"><g class="shapelayer"/><g class="imagelayer"/></g><g class="gridlayer"><g class="x"><path class="xgrid crisp" transform="translate(125.22,0)" d="M0,100v620" style="stroke: rgb(255, 255, 255); stroke-opacity: 1; stroke-width: 1px;"/><path class="xgrid crisp" transform="translate(170.43,0)" d="M0,100v620" style="stroke: rgb(255, 255, 255); stroke-opacity: 1; stroke-width: 1px;"/><path class="xgrid crisp" transform="translate(215.65,0)" d="M0,100v620" style="stroke: rgb(255, 255, 255); stroke-opacity: 1; stroke-width: 1px;"/><path class="xgrid crisp" transform="translate(260.87,0)" d="M0,100v620" style="stroke: rgb(255, 255, 255); stroke-opacity: 1; stroke-width: 1px;"/><path class="xgrid crisp" transform="translate(306.09000000000003,0)" d="M0,100v620" style="stroke: rgb(255, 255, 255); stroke-opacity: 1; stroke-width: 1px;"/><path class="xgrid crisp" transform="translate(351.3,0)" d="M0,100v620" style="stroke: rgb(255, 255, 255); stroke-opacity: 1; stroke-width: 1px;"/><path class="xgrid crisp" transform="translate(396.52,0)" d="M0,100v620" style="stroke: rgb(255, 255, 255); stroke-opacity: 1; stroke-width: 1px;"/><path class="xgrid crisp" transform="translate(441.74,0)" d="M0,100v620" style="stroke: rgb(255, 255, 255); stroke-opacity: 1; stroke-width: 1px;"/><path class="xgrid crisp" transform="translate(486.96,0)" d="M0,100v620" style="stroke: rgb(255, 255, 255); stroke-opacity: 1; stroke-width: 1px;"/><path class="xgrid crisp" transform="translate(532.1700000000001,0)" d="M0,100v620" style="stroke: rgb(255, 255, 255); stroke-opacity: 1; stroke-width: 1px;"/><path class="xgrid crisp" transform="translate(577.39,0)" d="M0,100v620" style="stroke: rgb(255, 255, 255); stroke-opacity: 1; stroke-width: 1px;"/><path class="xgrid crisp" transform="translate(622.61,0)" d="M0,100v620" style="stroke: rgb(255, 255, 255); stroke-opacity: 1; stroke-width: 1px;"/><path class="xgrid crisp" transform="translate(667.83,0)" d="M0,100v620" style="stroke: rgb(255, 255, 255); stroke-opacity: 1; stroke-width: 1px;"/><path class="xgrid crisp" transform="translate(713.04,0)" d="M0,100v620" style="stroke: rgb(255, 255, 255); stroke-opacity: 1; stroke-width: 1px;"/><path class="xgrid crisp" transform="translate(758.26,0)" d="M0,100v620" style="stroke: rgb(255, 255, 255); stroke-opacity: 1; stroke-width: 1px;"/><path class="xgrid crisp" transform="translate(803.48,0)" d="M0,100v620" style="stroke: rgb(255, 255, 255); stroke-opacity: 1; stroke-width: 1px;"/><path class="xgrid crisp" transform="translate(848.7,0)" d="M0,100v620" style="stroke: rgb(255, 255, 255); stroke-opacity: 1; stroke-width: 1px;"/><path class="xgrid crisp" transform="translate(893.91,0)" d="M0,100v620" style="stroke: rgb(255, 255, 255); stroke-opacity: 1; stroke-width: 1px;"/><path class="xgrid crisp" transform="translate(939.13,0)" d="M0,100v620" style="stroke: rgb(255, 255, 255); stroke-opacity: 1; stroke-width: 1px;"/><path class="xgrid crisp" transform="translate(984.35,0)" d="M0,100v620" style="stroke: rgb(255, 255, 255); stroke-opacity: 1; stroke-width: 1px;"/><path class="xgrid crisp" transform="translate(1029.5700000000002,0)" d="M0,100v620" style="stroke: rgb(255, 255, 255); stroke-opacity: 1; stroke-width: 1px;"/><path class="xgrid crisp" transform="translate(1074.78,0)" d="M0,100v620" style="stroke: rgb(255, 255, 255); stroke-opacity: 1; stroke-width: 1px;"/></g><g class="y"><path class="ygrid crisp" transform="translate(0,637.31)" d="M80,0h1040" style="stroke: rgb(255, 255, 255); stroke-opacity: 1; stroke-width: 1px;"/><path class="ygrid crisp" transform="translate(0,513.76)" d="M80,0h1040" style="stroke: rgb(255, 255, 255); stroke-opacity: 1; stroke-width: 1px;"/><path class="ygrid crisp" transform="translate(0,390.2)" d="M80,0h1040" style="stroke: rgb(255, 255, 255); stroke-opacity: 1; stroke-width: 1px;"/><path class="ygrid crisp" transform="translate(0,266.65)" d="M80,0h1040" style="stroke: rgb(255, 255, 255); stroke-opacity: 1; stroke-width: 1px;"/><path class="ygrid crisp" transform="translate(0,143.09)" d="M80,0h1040" style="stroke: rgb(255, 255, 255); stroke-opacity: 1; stroke-width: 1px;"/></g></g><g class="zerolinelayer"/><path class="xlines-below"/><path class="ylines-below"/><g class="overlines-below"/><g class="xaxislayer-below"/><g class="yaxislayer-below"/><g class="overaxes-below"/><g class="plot" transform="translate(80,100)" clip-path="url(#clip4a5d97xyplot)"><g class="scatterlayer mlayer"><g class="trace scatter trace2af63a" style="stroke-miterlimit: 2; opacity: 1;"><g class="fills"/><g class="errorbars"/><g class="lines"><path class="js-line" d="M0,252.49L45.22,201.75L90.43,193.2L135.65,167.21L180.87,139.92L226.09,108.21L271.3,94.68L316.52,80.83L361.74,84.05L406.96,63.04L452.17,55.92L497.39,46.62L542.61,46.45L587.83,37.29L633.04,35.8L678.26,36.26L723.48,34.44L768.7,34L813.91,32.64L904.35,31L949.57,33.11L994.78,31.06L1040,33.34" style="vector-effect: non-scaling-stroke; fill: none; stroke: rgb(99, 110, 250); stroke-opacity: 1; stroke-width: 2px; opacity: 1;"/></g><g class="points"/><g class="text"/></g><g class="trace scatter trace659e3a" style="stroke-miterlimit: 2; opacity: 1;"><g class="fills"/><g class="errorbars"/><g class="lines"><path class="js-line" d="M0,589L45.22,513.76L90.43,428.14L135.65,324.22L180.87,288.46L226.09,225.78L271.3,187.29L316.52,214.3L361.74,163.22L406.96,122.96L452.17,119.94L497.39,105.55L542.61,86.83L587.83,76.65L633.04,73.97L678.26,68.74L723.48,71.27L768.7,63.38L813.91,62.83L859.13,66.1L904.35,66.74L949.57,60.5L994.78,58.27L1040,61.26" style="vector-effect: non-scaling-stroke; fill: none; stroke: rgb(239, 85, 59); stroke-opacity: 1; stroke-width: 2px; opacity: 1;"/></g><g class="points"/><g class="text"/></g></g></g><g class="overplot"/><path class="xlines-above crisp" d="M0,0" style="fill: none;"/><path class="ylines-above crisp" d="M0,0" style="fill: none;"/><g class="overlines-above"/><g class="xaxislayer-above"><g class="xtick"><text text-anchor="start" x="3.15" y="730" transform="translate(80,0) rotate(90,3.15,721)" style="font-family: serif; font-size: 18px; fill: rgb(0, 0, 0); fill-opacity: 1; white-space: pre; opacity: 1;">1</text></g><g class="xtick"><text text-anchor="start" x="3.15" y="730" style="font-family: serif; font-size: 18px; fill: rgb(0, 0, 0); fill-opacity: 1; white-space: pre; opacity: 1;" transform="translate(125.22,0) rotate(90,3.15,721)">2</text></g><g class="xtick"><text text-anchor="start" x="3.15" y="730" style="font-family: serif; font-size: 18px; fill: rgb(0, 0, 0); fill-opacity: 1; white-space: pre; opacity: 1;" transform="translate(170.43,0) rotate(90,3.15,721)">3</text></g><g class="xtick"><text text-anchor="start" x="3.15" y="730" style="font-family: serif; font-size: 18px; fill: rgb(0, 0, 0); fill-opacity: 1; white-space: pre; opacity: 1;" transform="translate(215.65,0) rotate(90,3.15,721)">4</text></g><g class="xtick"><text text-anchor="start" x="3.15" y="730" style="font-family: serif; font-size: 18px; fill: rgb(0, 0, 0); fill-opacity: 1; white-space: pre; opacity: 1;" transform="translate(260.87,0) rotate(90,3.15,721)">5</text></g><g class="xtick"><text text-anchor="start" x="3.15" y="730" style="font-family: serif; font-size: 18px; fill: rgb(0, 0, 0); fill-opacity: 1; white-space: pre; opacity: 1;" transform="translate(306.09000000000003,0) rotate(90,3.15,721)">6</text></g><g class="xtick"><text text-anchor="start" x="3.15" y="730" style="font-family: serif; font-size: 18px; fill: rgb(0, 0, 0); fill-opacity: 1; white-space: pre; opacity: 1;" transform="translate(351.3,0) rotate(90,3.15,721)">7</text></g><g class="xtick"><text text-anchor="start" x="3.15" y="730" style="font-family: serif; font-size: 18px; fill: rgb(0, 0, 0); fill-opacity: 1; white-space: pre; opacity: 1;" transform="translate(396.52,0) rotate(90,3.15,721)">8</text></g><g class="xtick"><text text-anchor="start" x="3.15" y="730" style="font-family: serif; font-size: 18px; fill: rgb(0, 0, 0); fill-opacity: 1; white-space: pre; opacity: 1;" transform="translate(441.74,0) rotate(90,3.15,721)">9</text></g><g class="xtick"><text text-anchor="start" x="3.15" y="730" style="font-family: serif; font-size: 18px; fill: rgb(0, 0, 0); fill-opacity: 1; white-space: pre; opacity: 1;" transform="translate(486.96,0) rotate(90,3.15,721)">10</text></g><g class="xtick"><text text-anchor="start" x="3.15" y="730" style="font-family: serif; font-size: 18px; fill: rgb(0, 0, 0); fill-opacity: 1; white-space: pre; opacity: 1;" transform="translate(532.1700000000001,0) rotate(90,3.15,721)">12</text></g><g class="xtick"><text text-anchor="start" x="3.15" y="730" style="font-family: serif; font-size: 18px; fill: rgb(0, 0, 0); fill-opacity: 1; white-space: pre; opacity: 1;" transform="translate(577.39,0) rotate(90,3.15,721)">13</text></g><g class="xtick"><text text-anchor="start" x="3.15" y="730" style="font-family: serif; font-size: 18px; fill: rgb(0, 0, 0); fill-opacity: 1; white-space: pre; opacity: 1;" transform="translate(622.61,0) rotate(90,3.15,721)">14</text></g><g class="xtick"><text text-anchor="start" x="3.15" y="730" style="font-family: serif; font-size: 18px; fill: rgb(0, 0, 0); fill-opacity: 1; white-space: pre; opacity: 1;" transform="translate(667.83,0) rotate(90,3.15,721)">15</text></g><g class="xtick"><text text-anchor="start" x="3.15" y="730" style="font-family: serif; font-size: 18px; fill: rgb(0, 0, 0); fill-opacity: 1; white-space: pre; opacity: 1;" transform="translate(713.04,0) rotate(90,3.15,721)">16</text></g><g class="xtick"><text text-anchor="start" x="3.15" y="730" style="font-family: serif; font-size: 18px; fill: rgb(0, 0, 0); fill-opacity: 1; white-space: pre; opacity: 1;" transform="translate(758.26,0) rotate(90,3.15,721)">17</text></g><g class="xtick"><text text-anchor="start" x="3.15" y="730" style="font-family: serif; font-size: 18px; fill: rgb(0, 0, 0); fill-opacity: 1; white-space: pre; opacity: 1;" transform="translate(803.48,0) rotate(90,3.15,721)">17</text></g><g class="xtick"><text text-anchor="start" x="3.15" y="730" style="font-family: serif; font-size: 18px; fill: rgb(0, 0, 0); fill-opacity: 1; white-space: pre; opacity: 1;" transform="translate(848.7,0) rotate(90,3.15,721)">18</text></g><g class="xtick"><text text-anchor="start" x="3.15" y="730" style="font-family: serif; font-size: 18px; fill: rgb(0, 0, 0); fill-opacity: 1; white-space: pre; opacity: 1;" transform="translate(893.91,0) rotate(90,3.15,721)">19</text></g><g class="xtick"><text text-anchor="start" x="3.15" y="730" style="font-family: serif; font-size: 18px; fill: rgb(0, 0, 0); fill-opacity: 1; white-space: pre; opacity: 1;" transform="translate(939.13,0) rotate(90,3.15,721)">20</text></g><g class="xtick"><text text-anchor="start" x="3.15" y="730" style="font-family: serif; font-size: 18px; fill: rgb(0, 0, 0); fill-opacity: 1; white-space: pre; opacity: 1;" transform="translate(984.35,0) rotate(90,3.15,721)">21</text></g><g class="xtick"><text text-anchor="start" x="3.15" y="730" style="font-family: serif; font-size: 18px; fill: rgb(0, 0, 0); fill-opacity: 1; white-space: pre; opacity: 1;" transform="translate(1029.5700000000002,0) rotate(90,3.15,721)">22</text></g><g class="xtick"><text text-anchor="start" x="3.15" y="730" style="font-family: serif; font-size: 18px; fill: rgb(0, 0, 0); fill-opacity: 1; white-space: pre; opacity: 1;" transform="translate(1074.78,0) rotate(90,3.15,721)">23</text></g><g class="xtick"><text text-anchor="start" x="3.15" y="730" style="font-family: serif; font-size: 18px; fill: rgb(0, 0, 0); fill-opacity: 1; white-space: pre; opacity: 1;" transform="translate(1120,0) rotate(90,3.15,721)">24</text></g></g><g class="yaxislayer-above"><g class="ytick"><text text-anchor="end" x="79" y="6.3" transform="translate(0,637.31)" style="font-family: serif; font-size: 18px; fill: rgb(0, 0, 0); fill-opacity: 1; white-space: pre; opacity: 1;">0.1</text></g><g class="ytick"><text text-anchor="end" x="79" y="6.3" style="font-family: serif; font-size: 18px; fill: rgb(0, 0, 0); fill-opacity: 1; white-space: pre; opacity: 1;" transform="translate(0,513.76)">0.15</text></g><g class="ytick"><text text-anchor="end" x="79" y="6.3" style="font-family: serif; font-size: 18px; fill: rgb(0, 0, 0); fill-opacity: 1; white-space: pre; opacity: 1;" transform="translate(0,390.2)">0.2</text></g><g class="ytick"><text text-anchor="end" x="79" y="6.3" style="font-family: serif; font-size: 18px; fill: rgb(0, 0, 0); fill-opacity: 1; white-space: pre; opacity: 1;" transform="translate(0,266.65)">0.25</text></g><g class="ytick"><text text-anchor="end" x="79" y="6.3" style="font-family: serif; font-size: 18px; fill: rgb(0, 0, 0); fill-opacity: 1; white-space: pre; opacity: 1;" transform="translate(0,143.09)">0.3</text></g></g><g class="overaxes-above"/></g></g><g class="polarlayer"/><g class="smithlayer"/><g class="ternarylayer"/><g class="geolayer"/><g class="funnelarealayer"/><g class="pielayer"/><g class="iciclelayer"/><g class="treemaplayer"/><g class="sunburstlayer"/><g class="glimages"/><defs id="topdefs-4a5d97"><g class="clips"/><clipPath id="legend4a5d97"><rect width="487" height="37" x="0" y="0"/></clipPath></defs><g class="layer-above"><g class="imagelayer"/><g class="shapelayer"/></g><g class="infolayer"><g class="legend" pointer-events="all" transform="translate(633,50.599999999999994)"><rect class="bg" shape-rendering="crispEdges" style="stroke: rgb(68, 68, 68); stroke-opacity: 1; fill: rgb(255, 255, 255); fill-opacity: 1; stroke-width: 0px;" width="487" height="37" x="0" y="0"/><g class="scrollbox" transform="" clip-path="url(#legend4a5d97)"><g class="groups" transform=""><g class="traces" transform="translate(0,18.200000000000003)" style="opacity: 1;"><text class="legendtext" text-anchor="start" x="40" y="7.0200000000000005" style="font-family: serif; font-size: 18px; fill: rgb(0, 0, 0); fill-opacity: 1; white-space: pre;">train mAP @ patch level</text><g class="layers" style="opacity: 1;"><g class="legendfill"/><g class="legendlines"><path class="js-line" d="M5,0h30" style="fill: none; stroke: rgb(99, 110, 250); stroke-opacity: 1; stroke-width: 2px;"/></g><g class="legendsymbols"><g class="legendpoints"/></g></g><rect class="legendtoggle" x="0" y="-13.200000000000001" width="221.046875" height="26.400000000000002" style="fill: rgb(0, 0, 0); fill-opacity: 0;"/></g></g><g class="groups" transform="translate(223.546875,0)"><g class="traces" transform="translate(0,18.200000000000003)" style="opacity: 1;"><text class="legendtext" text-anchor="start" x="40" y="7.0200000000000005" style="font-family: serif; font-size: 18px; fill: rgb(0, 0, 0); fill-opacity: 1; white-space: pre;">validation mAP @ patch level</text><g class="layers" style="opacity: 1;"><g class="legendfill"/><g class="legendlines"><path class="js-line" d="M5,0h30" style="fill: none; stroke: rgb(239, 85, 59); stroke-opacity: 1; stroke-width: 2px;"/></g><g class="legendsymbols"><g class="legendpoints"/></g></g><rect class="legendtoggle" x="0" y="-13.200000000000001" width="260.03125" height="26.400000000000002" style="fill: rgb(0, 0, 0); fill-opacity: 0;"/></g></g></g><rect class="scrollbar" rx="20" ry="3" width="0" height="0" style="fill: rgb(128, 139, 164); fill-opacity: 1;" x="0" y="0"/></g><g class="g-gtitle"><text class="gtitle" x="60" y="50" text-anchor="start" dy="0em" style="font-family: serif; font-size: 25px; fill: rgb(0, 0, 0); opacity: 1; font-weight: normal; white-space: pre;">mAP During Final Training</text></g><g class="g-xtitle"><text class="xtitle" x="600" y="769.405859375" text-anchor="middle" style="font-family: serif; font-size: 22px; fill: rgb(0, 0, 0); opacity: 1; font-weight: normal; white-space: pre;">Epoch</text></g><g class="g-ytitle" transform="translate(2.900390625,0)"><text class="ytitle" transform="rotate(-90,17.1,410)" x="17.1" y="410" text-anchor="middle" style="font-family: serif; font-size: 22px; fill: rgb(0, 0, 0); opacity: 1; font-weight: normal; white-space: pre;">mean_average_precision_level0</text></g></g></svg>